<svg width="454" height="218" viewBox="0 0 454 218" fill="none" xmlns="http://www.w3.org/2000/svg">
<path d="M217.239 145.006C95.9374 145.006 0 161.152 0 181.026C0 200.93 95.9374 217.047 217.239 217.047C338.54 217.047 438.676 200.93 438.676 181.026C438.705 161.123 338.57 145.006 217.239 145.006ZM213.217 190.538C185.123 190.538 162.342 183.58 162.342 174.979C162.342 166.377 185.123 159.42 213.217 159.42C241.311 159.42 264.063 166.377 264.063 174.979C264.063 183.58 241.282 190.538 213.217 190.538ZM391.001 0.952988H284.788L228.072 66.6824L201.063 1.86305H33.6133L27.3897 30.1041H93.9999C93.9999 30.1041 124.443 26.1116 125.441 50.4776C125.441 92.6924 55.6895 89.1109 55.6895 89.1109L68.7238 45.076H25.5109L5.69518 116.501H84.0186C84.0186 116.501 166.834 109.161 166.834 51.3876C166.834 51.3876 170.18 34.5369 168.771 27.1097L209.137 135.054L309.976 30.3977H386.48C386.48 30.3977 409.906 32.3939 409.906 50.5069C409.906 92.7218 340.654 88.3183 340.654 88.3183L351.369 45.1053H313.587L291.981 116.53H363.993C363.993 116.53 454 110.952 454 49.6263C454 49.6263 452.209 0.952988 391.001 0.952988Z" fill="white"/>
</svg>